# xmcd
#
# Track frame offsets: 
#        150
#        10579
#        24111
#        35587
#        49572
#        62850
#        72022
#        85874
#        98215
#        110652
#        127827
#        143033
#        157650
#
# Disc length: 2277 seconds
#
# Revision: 0
# Processed by: cddbd v1.5.2PL0 Copyright (c) Steve Scherf et al.
# Submitted via: ExactAudioCopyFreeDBPlugin 1.0
#
DISCID=9508e30d
DTITLE=Various Artist - Top 40 Country Songs Volume 1 Disc 2
DYEAR=2012
DGENRE=Country
TTITLE0=Johnny Paycheck - Jukebox Charlie
TTITLE1=Billie Jo Spears - Mr. Walker It's Over
TTITLE2=Lynn Anderson - That's a No-No (Live)
TTITLE3=Lynn Anderson - Rocky Top (Live)
TTITLE4=Johnny Paycheck - Somebody Loves Me
TTITLE5=Johnny Paycheck - Mr. Love Maker
TTITLE6=Don Gibson - Touch the Morning
TTITLE7=Johnny Paycheck - Song and Dance Man
TTITLE8=Lynn Anderson - I've Never Loved Anyone Anymore
TTITLE9=Tanya Tucker - Spring
TTITLE10=Lynn Anderson - Paradise
TTITLE11=Tanya Tucker - You've Got Me to Hold on to
TTITLE12=Johnny Paycheck - Slide of  Your Satin Sheets
EXTD=
EXTT0=
EXTT1=
EXTT2=
EXTT3=
EXTT4=
EXTT5=
EXTT6=
EXTT7=
EXTT8=
EXTT9=
EXTT10=
EXTT11=
EXTT12=
PLAYORDER=
